<svg id="Capa_1" enable-background="new 0 0 512.437 512.437" height="512" viewBox="0 0 512.437 512.437" width="512" xmlns="http://www.w3.org/2000/svg"><path d="m286.426 99.641v144.668c0 28.349 9.495 55.881 26.97 78.204 9.675 12.359 14.932 27.602 14.932 43.297v146.363h85.863 32.336v-158.74c0-17.608 7.56-34.37 20.763-46.02 8.151-7.192 16.786-14.782 21.996-19.278 9.616-8.485 15.124-20.691 15.124-33.515v-60.641c0-14.452-11.715-26.167-26.167-26.167-2.7 0-5.303.409-7.753 1.169v-110.359c0-12.475-9.701-23.101-22.168-23.545-13.089-.466-23.847 10.007-23.847 22.993v-27.561c0-12.985-10.757-23.458-23.846-22.993-12.468.443-22.169 11.068-22.169 23.544v13.371c0-12.985-10.757-23.458-23.847-22.993-12.468.443-22.169 11.069-22.169 23.544v54.108c0-12.985-10.757-23.458-23.847-22.993-12.47.443-22.171 11.069-22.171 23.544z" fill="#d78878"/><path d="m482.708 168.197c2.99 4.34 4.74 9.6 4.74 15.27v62.65c0 6.62-1.42 13.09-4.09 18.99-2.66 5.91-6.56 11.25-11.53 15.63-5.38 4.64-14.3 12.49-22.72 19.91-13.64 12.04-21.45 29.35-21.45 47.54v163.99h18.87v-158.74c0-17.61 7.56-34.37 20.76-46.02 8.15-7.2 16.79-14.79 22-19.28 4.81-4.24 8.59-9.42 11.16-15.13 2.58-5.72 3.96-11.97 3.96-18.39v-60.64c0-12.93-9.37-23.67-21.7-25.78z" fill="#ca6e59"/><path d="m203.842 76.097c-13.089-.465-23.847 10.007-23.847 22.993v-54.108c0-12.476-9.701-23.101-22.169-23.544-13.089-.465-23.847 10.008-23.847 22.993v-13.371c0-12.475-9.702-23.101-22.169-23.544-13.09-.465-23.847 10.008-23.847 22.993v27.561c0-12.986-10.758-23.459-23.847-22.993-12.468.444-22.168 11.069-22.168 23.545v110.358c-2.45-.759-5.054-1.169-7.753-1.169-14.452 0-26.167 11.715-26.167 26.167v60.641c0 12.824 5.508 25.031 15.124 33.515 5.21 4.496 13.845 12.086 21.996 19.278 13.203 11.65 20.763 28.412 20.763 46.02v158.74h32.336 85.863v-146.362c0-15.695 5.257-30.938 14.932-43.297 17.475-22.323 26.97-49.855 26.97-78.204v-144.668c-.001-12.475-9.703-23.101-22.17-23.544z" fill="#d78878"/><path d="m226.008 99.646v144.662c0 28.35-9.493 55.881-26.969 78.202-4.835 6.187-8.565 13.085-11.091 20.407-2.526 7.312-3.839 15.048-3.839 22.893v146.363h-19.183v-146.363c0-7.845 1.312-15.581 3.839-22.893 2.526-7.322 6.256-14.219 11.091-20.407 17.476-22.321 26.969-49.852 26.969-78.202v-144.662c0-9.374-5.467-17.693-13.46-21.452 3.168-1.461 6.73-2.23 10.48-2.092 12.463.434 22.163 11.062 22.163 23.544z" fill="#ca6e59"/><circle cx="256.218" cy="187.463" fill="#fff2e2" r="137.374"/><path d="m393.588 187.467c0 75.87-61.5 137.37-137.37 137.37-42.88 0-81.17-19.65-106.37-50.43 24.07 20.8 55.45 33.39 89.77 33.39 75.87 0 137.38-61.51 137.38-137.38 0-33-11.64-63.29-31.04-86.97 29.17 25.2 47.63 62.45 47.63 104.02z" fill="#fee8c7"/><path d="m334.398 150.807h-26.048c-8.547 0-15.475-6.928-15.475-15.475v-26.048c0-8.547-6.928-15.475-15.475-15.475h-42.363c-8.547 0-15.475 6.928-15.475 15.475v26.048c0 8.547-6.928 15.475-15.475 15.475h-26.048c-8.547 0-15.475 6.928-15.475 15.475v42.363c0 8.547 6.928 15.475 15.475 15.475h26.048c8.547 0 15.475 6.928 15.475 15.475v26.048c0 8.547 6.928 15.475 15.475 15.475h42.363c8.547 0 15.475-6.928 15.475-15.475v-26.048c0-8.547 6.928-15.475 15.475-15.475h26.048c8.547 0 15.475-6.928 15.475-15.475v-42.363c0-8.547-6.929-15.475-15.475-15.475z" fill="#fd4755"/><path d="m349.868 166.277v42.37c0 8.54-6.92 15.47-15.47 15.47h-26.05c-8.544 0-15.47 6.926-15.47 15.47v26.06c0 8.54-6.93 15.47-15.48 15.47h-20.12c8.55 0 15.47-6.93 15.47-15.47v-29.006c0-16.748 13.577-30.324 30.324-30.324h19.646c3.89 0 7.03-3.15 7.03-7.03v-24.45c0-3.88-3.14-7.03-7.03-7.03-3.278 0-6.555 0-9.833 0-9.97 0-21.611.425-30.131-5.652-9.39-6.697-10.911-19.196-10.909-29.832.001-7.689.903-15.348.902-23.037-.001-8.549-6.921-15.478-15.47-15.478h20.12c8.549 0 15.48 6.931 15.48 15.48v26.04c0 8.549 6.931 15.48 15.48 15.48h26.04c8.551-.001 15.471 6.929 15.471 15.469z" fill="#fb2b3a"/><path d="m328.328 451.837c-4.143 0-7.5 3.358-7.5 7.5v45.6c0 4.142 3.357 7.5 7.5 7.5s7.5-3.358 7.5-7.5v-45.6c0-4.142-3.358-7.5-7.5-7.5z"/><path d="m478.243 160.311c-.085 0-.168.006-.253.007v-101.696c0-16.539-13.189-30.463-29.402-31.04-5.934-.217-11.648 1.254-16.613 4.199v-1.272c0-8.354-3.312-16.151-9.324-21.954-6.01-5.8-13.909-8.841-22.289-8.534-12.259.435-22.79 8.503-27.197 19.562-5.443-3.902-11.984-5.89-18.819-5.64-16.213.576-29.402 14.5-29.402 31.039v14.973c-20.461-11.072-43.871-17.366-68.724-17.366s-48.262 6.293-68.724 17.366v-14.973c0-16.539-13.189-30.463-29.402-31.039-6.839-.243-13.377 1.739-18.819 5.64-4.407-11.06-14.938-19.126-27.197-19.562-8.357-.305-16.278 2.733-22.289 8.534-6.013 5.803-9.324 13.599-9.324 21.954v.987.286c-4.965-2.944-10.684-4.413-16.613-4.199-16.213.576-29.402 14.5-29.402 31.04v101.696c-.085-.001-.168-.007-.253-.007-18.564 0-33.667 15.103-33.667 33.667v60.642c0 14.97 6.438 29.235 17.724 39.193 4.418 3.812 11.798 10.28 21.935 19.223 11.582 10.22 18.225 24.944 18.225 40.396v151.504c0 4.142 3.357 7.5 7.5 7.5s7.5-3.358 7.5-7.5v-151.504c0-19.754-8.493-38.578-23.301-51.644-10.178-8.98-17.6-15.484-21.996-19.278-7.998-7.058-12.586-17.224-12.586-27.891v-60.642c0-10.293 8.374-18.667 18.667-18.667s18.667 8.374 18.667 18.667v50.292c0 11.959 9.729 21.688 21.688 21.688 8.931 0 16.196 7.266 16.196 16.197 0 4.142 3.357 7.5 7.5 7.5s7.5-3.358 7.5-7.5c0-17.202-13.994-31.197-31.196-31.197-3.688 0-6.688-3-6.688-6.688v-50.292c0-13.075-7.497-24.425-18.414-29.999v-105.357c0-8.557 6.7-15.756 14.936-16.049 4.235-.157 8.283 1.388 11.339 4.337 3.058 2.95 4.741 6.914 4.741 11.161v143.484c0 4.142 3.357 7.5 7.5 7.5s7.5-3.358 7.5-7.5v-170.059-.987c0-4.247 1.684-8.21 4.74-11.16 3.055-2.949 7.104-4.491 11.34-4.337 8.235.292 14.936 7.492 14.936 16.049v.435 91.555c-9.678 19.414-15.134 41.286-15.134 64.412 0 20.106 4.044 39.574 12.019 57.863 1.656 3.797 6.077 5.53 9.873 3.877 3.797-1.656 5.532-6.076 3.877-9.873-7.146-16.386-10.769-33.836-10.769-51.867 0-71.612 58.262-129.874 129.874-129.874s129.874 58.261 129.874 129.874-58.262 129.874-129.874 129.874c-40.151 0-77.415-18.14-102.234-49.768-2.558-3.26-7.272-3.827-10.53-1.271-3.259 2.557-3.827 7.272-1.271 10.53 13.912 17.729 31.333 31.654 50.905 41.125-10.626 13.603-16.479 30.595-16.479 47.857v139.126c0 4.142 3.357 7.5 7.5 7.5s7.5-3.358 7.5-7.5v-139.126c0-13.953 4.736-27.688 13.337-38.674.826-1.055 1.634-2.123 2.426-3.202 15.438 5.505 31.911 8.403 48.847 8.403 17.116 0 33.545-2.992 48.801-8.466.807 1.1 1.63 2.189 2.472 3.265 8.601 10.987 13.337 24.722 13.337 38.674v58.902c0 4.142 3.357 7.5 7.5 7.5s7.5-3.358 7.5-7.5v-58.902c0-17.289-5.869-34.307-16.526-47.92-.005-.006-.009-.012-.014-.018 48.375-23.491 81.805-73.118 81.805-130.409 0-23.126-5.456-44.999-15.134-64.413v-91.99c0-8.557 6.7-15.756 14.936-16.048 4.259-.152 8.284 1.389 11.34 4.337 3.057 2.95 4.74 6.914 4.74 11.16v171.045c0 4.142 3.357 7.5 7.5 7.5s7.5-3.358 7.5-7.5v-143.483c0-4.247 1.684-8.21 4.741-11.161 3.055-2.948 7.073-4.49 11.339-4.337 8.235.293 14.936 7.493 14.936 16.049v105.358c-10.917 5.574-18.414 16.923-18.414 29.999v50.292c0 3.688-3 6.688-6.688 6.688-17.202 0-31.196 13.995-31.196 31.197 0 4.142 3.357 7.5 7.5 7.5s7.5-3.358 7.5-7.5c0-8.931 7.266-16.197 16.196-16.197 11.959 0 21.688-9.729 21.688-21.688v-50.292c0-10.293 8.374-18.667 18.667-18.667s18.667 8.374 18.667 18.667v60.642c0 10.667-4.588 20.833-12.524 27.837-4.458 3.848-11.88 10.352-22.058 19.333-14.808 13.065-23.301 31.889-23.301 51.644v151.504c0 4.142 3.357 7.5 7.5 7.5s7.5-3.358 7.5-7.5v-151.506c0-15.453 6.643-30.177 18.225-40.396 10.137-8.944 17.517-15.412 21.996-19.278 11.225-9.904 17.662-24.169 17.662-39.139v-60.642c-.007-18.564-15.11-33.667-33.674-33.667zm-305.748-91.017c-11.758 8.355-22.214 18.423-31.017 29.83v-54.674c0-.007.001-.013.001-.019 0-4.247 1.684-8.21 4.74-11.161 3.056-2.948 7.096-4.482 11.34-4.337 8.235.293 14.936 7.492 14.936 16.049zm198.464 29.83c-8.803-11.407-19.259-21.476-31.017-29.831v-24.311c0-8.557 6.7-15.756 14.936-16.049 4.251-.152 8.285 1.389 11.34 4.337 3.057 2.95 4.74 6.914 4.74 11.161 0 .007.001.013.001.019z"/><path d="m277.4 86.309h-42.363c-12.668 0-22.975 10.307-22.975 22.975v26.048c0 4.397-3.578 7.975-7.976 7.975h-26.048c-12.668 0-22.975 10.307-22.975 22.975v42.363c0 12.668 10.307 22.975 22.975 22.975h26.048c4.397 0 7.976 3.577 7.976 7.975v26.048c0 12.668 10.307 22.975 22.975 22.975h42.363c12.668 0 22.975-10.307 22.975-22.975v-26.048c0-4.397 3.578-7.975 7.976-7.975h26.048c12.668 0 22.975-10.307 22.975-22.975v-42.363c0-12.668-10.307-22.975-22.975-22.975h-26.049c-4.397 0-7.976-3.578-7.976-7.975v-26.048c.001-12.669-10.306-22.975-22.974-22.975zm30.95 71.998h26.048c4.397 0 7.975 3.578 7.975 7.975v42.363c0 4.397-3.577 7.975-7.975 7.975h-26.048c-12.669 0-22.976 10.306-22.976 22.975v26.048c0 4.397-3.577 7.975-7.975 7.975h-42.363c-4.397 0-7.975-3.578-7.975-7.975v-26.048c0-12.668-10.307-22.975-22.976-22.975h-26.048c-4.397 0-7.975-3.578-7.975-7.975v-42.363c0-4.397 3.577-7.975 7.975-7.975h26.048c12.669 0 22.976-10.307 22.976-22.975v-26.048c0-4.397 3.577-7.975 7.975-7.975h42.364c4.397 0 7.975 3.578 7.975 7.975v26.048c0 12.668 10.306 22.975 22.975 22.975z"/></svg>